<svg width="586" height="606" viewBox="0 0 586 606" fill="none" xmlns="http://www.w3.org/2000/svg">
<path fill-rule="evenodd" clip-rule="evenodd" d="M466 0H506V23H466V0ZM282 6H350V158H282V6ZM363 409H586V606H363V409ZM187 409H0V606H187V409ZM189 336H257V606H189V336ZM438 93H370V197H438V93ZM282 274H322V305H282V274ZM143 336H103V367H143V336ZM209 140V171H169V140H209ZM410 44H370V75H410V44ZM451 166H491V197H451V166ZM410 7H370V38H410V7ZM217 274H257V305H217V274ZM78 336H38V367H78V336ZM22 335V366H0V335H22ZM361 274H324V305H361V274ZM145 336H182V367H145V336ZM430 314V283H390V314H430ZM217 140H257V171H217V140ZM350 386H310V417H350V386ZM451 0H411V31H451V0ZM492 122H532V153H492V122ZM532 75H492V106H532V75ZM439 75H479V106H439V75ZM585 75H545V106H585V75ZM545 122H585V153H545V122ZM585 167H545V198H585V167ZM498 167H538V198H498V167ZM586 22H546V53H586V22ZM282 164H350V202H282V164ZM350 495H282V533H350V495ZM189 44H257V82H189V44ZM257 88H189V114H257V88ZM282 336H350V362H282V336ZM144 54H76V114H144V54ZM76 136H144V196H76V136ZM68 136H2V196H68V136ZM54 202H86V240H54V202ZM126 202H94V240H126V202ZM160 202V240H128V202H160ZM46 202H14V240H46V202ZM4 88H70V114H4V88ZM70 54H4V80H70V54ZM4 10H70V36H4V10ZM257 7H189V38H257V7ZM76 7H144V38H76V7ZM350 208H282V268H350V208ZM282 539H350V599H282V539ZM438 208H370V268H438V208ZM445 208H586V268H445V208ZM513 275H445V314H513V275ZM189 208H257V268H189V208ZM350 426H282V486H350V426ZM2 245H182V305H2V245ZM586 336H361V396H586V336Z" fill="white"/>
</svg>
